<svg width="175" height="111" viewBox="0 0 175 111" fill="none" xmlns="http://www.w3.org/2000/svg">
<path d="M7.632 3.506C7.38 3.098 7.044 2.804 6.624 2.624C6.204 2.432 5.766 2.336 5.31 2.336C4.974 2.336 4.644 2.378 4.32 2.462C3.996 2.546 3.702 2.672 3.438 2.84C3.186 3.008 2.982 3.23 2.826 3.506C2.67 3.782 2.592 4.106 2.592 4.478C2.592 4.766 2.634 5.024 2.718 5.252C2.814 5.468 2.964 5.666 3.168 5.846C3.372 6.026 3.648 6.194 3.996 6.35C4.344 6.506 4.77 6.662 5.274 6.818C5.766 6.974 6.24 7.142 6.696 7.322C7.164 7.502 7.572 7.73 7.92 8.006C8.28 8.282 8.562 8.63 8.766 9.05C8.982 9.458 9.09 9.974 9.09 10.598C9.09 11.234 8.964 11.786 8.712 12.254C8.46 12.722 8.124 13.112 7.704 13.424C7.296 13.724 6.822 13.946 6.282 14.09C5.742 14.246 5.184 14.324 4.608 14.324C4.236 14.324 3.864 14.288 3.492 14.216C3.12 14.156 2.76 14.06 2.412 13.928C2.076 13.784 1.758 13.604 1.458 13.388C1.158 13.16 0.9 12.884 0.684 12.56L1.98 11.498C2.256 11.966 2.64 12.32 3.132 12.56C3.624 12.8 4.146 12.92 4.698 12.92C5.022 12.92 5.346 12.872 5.67 12.776C6.006 12.68 6.306 12.542 6.57 12.362C6.834 12.17 7.05 11.936 7.218 11.66C7.386 11.384 7.47 11.066 7.47 10.706C7.47 10.31 7.404 9.992 7.272 9.752C7.14 9.5 6.936 9.284 6.66 9.104C6.384 8.924 6.036 8.762 5.616 8.618C5.196 8.474 4.704 8.306 4.14 8.114C3.684 7.97 3.264 7.808 2.88 7.628C2.496 7.436 2.16 7.208 1.872 6.944C1.596 6.668 1.374 6.344 1.206 5.972C1.05 5.588 0.972 5.132 0.972 4.604C0.972 3.992 1.092 3.458 1.332 3.002C1.572 2.546 1.896 2.168 2.304 1.868C2.712 1.556 3.174 1.322 3.69 1.166C4.206 1.01 4.746 0.932 5.31 0.932C6.03 0.932 6.684 1.046 7.272 1.274C7.872 1.49 8.406 1.874 8.874 2.426L7.632 3.506ZM18.678 12.002C18.678 12.386 18.69 12.746 18.714 13.082C18.738 13.418 18.75 13.724 18.75 14H17.418C17.418 13.772 17.412 13.544 17.4 13.316C17.388 13.088 17.382 12.854 17.382 12.614H17.346C17.25 12.818 17.112 13.016 16.932 13.208C16.764 13.4 16.56 13.574 16.32 13.73C16.08 13.874 15.81 13.988 15.51 14.072C15.21 14.168 14.886 14.216 14.538 14.216C13.986 14.216 13.506 14.132 13.098 13.964C12.702 13.796 12.372 13.562 12.108 13.262C11.844 12.962 11.646 12.602 11.514 12.182C11.394 11.75 11.334 11.282 11.334 10.778V5.576H12.738V10.634C12.738 11.342 12.894 11.9 13.206 12.308C13.518 12.716 14.004 12.92 14.664 12.92C15.12 12.92 15.51 12.842 15.834 12.686C16.17 12.53 16.44 12.308 16.644 12.02C16.86 11.732 17.016 11.39 17.112 10.994C17.22 10.598 17.274 10.16 17.274 9.68V5.576H18.678V12.002ZM21.5159 11.786C21.7919 12.134 22.0919 12.41 22.4159 12.614C22.7519 12.818 23.1719 12.92 23.6759 12.92C23.8919 12.92 24.1079 12.896 24.3239 12.848C24.5519 12.8 24.7559 12.722 24.9359 12.614C25.1159 12.506 25.2599 12.374 25.3679 12.218C25.4759 12.05 25.5299 11.852 25.5299 11.624C25.5299 11.396 25.4759 11.21 25.3679 11.066C25.2719 10.922 25.1399 10.802 24.9719 10.706C24.8039 10.598 24.6119 10.514 24.3959 10.454C24.1799 10.394 23.9579 10.34 23.7299 10.292C23.3339 10.208 22.9559 10.112 22.5959 10.004C22.2359 9.896 21.9179 9.758 21.6419 9.59C21.3779 9.41 21.1619 9.182 20.9939 8.906C20.8379 8.63 20.7599 8.276 20.7599 7.844C20.7599 7.436 20.8499 7.076 21.0299 6.764C21.2099 6.452 21.4499 6.194 21.7499 5.99C22.0499 5.786 22.3859 5.63 22.7579 5.522C23.1299 5.414 23.5139 5.36 23.9099 5.36C24.5099 5.36 25.0619 5.48 25.5659 5.72C26.0819 5.96 26.4839 6.35 26.7719 6.89L25.6019 7.664C25.4219 7.364 25.1819 7.124 24.8819 6.944C24.5939 6.752 24.2399 6.656 23.8199 6.656C23.6279 6.656 23.4299 6.68 23.2259 6.728C23.0339 6.776 22.8599 6.848 22.7039 6.944C22.5479 7.04 22.4159 7.166 22.3079 7.322C22.2119 7.466 22.1639 7.634 22.1639 7.826C22.1639 8.006 22.2179 8.162 22.3259 8.294C22.4459 8.414 22.6019 8.522 22.7939 8.618C22.9979 8.714 23.2259 8.798 23.4779 8.87C23.7419 8.942 24.0119 9.002 24.2879 9.05C24.6599 9.122 25.0139 9.218 25.3499 9.338C25.6859 9.446 25.9799 9.596 26.2319 9.788C26.4839 9.98 26.6819 10.22 26.8259 10.508C26.9699 10.796 27.0419 11.15 27.0419 11.57C27.0419 12.05 26.9459 12.458 26.7539 12.794C26.5619 13.13 26.3039 13.406 25.9799 13.622C25.6679 13.826 25.3079 13.976 24.8999 14.072C24.5039 14.168 24.0959 14.216 23.6759 14.216C22.9559 14.216 22.3319 14.108 21.8039 13.892C21.2879 13.664 20.8199 13.25 20.3999 12.65L21.5159 11.786ZM28.928 5.576H30.332V6.8H30.368C30.752 6.344 31.196 5.99 31.7 5.738C32.216 5.486 32.78 5.36 33.392 5.36C34.052 5.36 34.652 5.474 35.192 5.702C35.744 5.918 36.212 6.224 36.596 6.62C36.98 7.016 37.28 7.484 37.496 8.024C37.712 8.564 37.82 9.152 37.82 9.788C37.82 10.424 37.712 11.012 37.496 11.552C37.28 12.092 36.98 12.56 36.596 12.956C36.224 13.352 35.78 13.664 35.264 13.892C34.748 14.108 34.196 14.216 33.608 14.216C32.852 14.216 32.186 14.054 31.61 13.73C31.046 13.394 30.632 12.986 30.368 12.506H30.332V18.104H28.928V5.576ZM30.332 9.788C30.332 10.232 30.398 10.646 30.53 11.03C30.674 11.402 30.878 11.732 31.142 12.02C31.406 12.296 31.718 12.518 32.078 12.686C32.45 12.842 32.864 12.92 33.32 12.92C33.776 12.92 34.184 12.842 34.544 12.686C34.916 12.518 35.234 12.296 35.498 12.02C35.762 11.732 35.96 11.402 36.092 11.03C36.236 10.646 36.308 10.232 36.308 9.788C36.308 9.344 36.236 8.936 36.092 8.564C35.96 8.18 35.762 7.85 35.498 7.574C35.234 7.286 34.916 7.064 34.544 6.908C34.184 6.74 33.776 6.656 33.32 6.656C32.864 6.656 32.45 6.74 32.078 6.908C31.718 7.064 31.406 7.286 31.142 7.574C30.878 7.85 30.674 8.18 30.53 8.564C30.398 8.936 30.332 9.344 30.332 9.788ZM47.5279 12.47C47.0239 13.118 46.4719 13.574 45.8719 13.838C45.2719 14.09 44.5759 14.216 43.7839 14.216C43.1239 14.216 42.5299 14.102 42.0019 13.874C41.4739 13.634 41.0239 13.316 40.6519 12.92C40.2919 12.524 40.0099 12.056 39.8059 11.516C39.6139 10.976 39.5179 10.4 39.5179 9.788C39.5179 9.14 39.6259 8.546 39.8419 8.006C40.0579 7.454 40.3579 6.986 40.7419 6.602C41.1259 6.206 41.5819 5.9 42.1099 5.684C42.6379 5.468 43.2139 5.36 43.8379 5.36C44.4259 5.36 44.9659 5.462 45.4579 5.666C45.9499 5.858 46.3699 6.146 46.7179 6.53C47.0779 6.902 47.3539 7.364 47.5459 7.916C47.7379 8.456 47.8339 9.074 47.8339 9.77V10.22H41.0299C41.0539 10.58 41.1379 10.928 41.2819 11.264C41.4379 11.588 41.6359 11.876 41.8759 12.128C42.1159 12.368 42.3979 12.56 42.7219 12.704C43.0459 12.848 43.3999 12.92 43.7839 12.92C44.3959 12.92 44.9119 12.812 45.3319 12.596C45.7519 12.38 46.1299 12.062 46.4659 11.642L47.5279 12.47ZM46.3219 9.032C46.2979 8.312 46.0639 7.736 45.6199 7.304C45.1759 6.872 44.5639 6.656 43.7839 6.656C43.0039 6.656 42.3739 6.872 41.8939 7.304C41.4139 7.736 41.1259 8.312 41.0299 9.032H46.3219ZM50.0058 7.574C50.0058 7.19 49.9938 6.83 49.9698 6.494C49.9458 6.158 49.9338 5.852 49.9338 5.576H51.2658C51.2658 5.804 51.2718 6.032 51.2838 6.26C51.2958 6.488 51.3018 6.722 51.3018 6.962H51.3378C51.4338 6.758 51.5658 6.56 51.7338 6.368C51.9138 6.176 52.1238 6.008 52.3638 5.864C52.6038 5.708 52.8738 5.588 53.1738 5.504C53.4738 5.408 53.7978 5.36 54.1458 5.36C54.6978 5.36 55.1718 5.444 55.5678 5.612C55.9758 5.78 56.3118 6.014 56.5758 6.314C56.8398 6.614 57.0318 6.98 57.1518 7.412C57.2838 7.832 57.3498 8.294 57.3498 8.798V14H55.9458V8.942C55.9458 8.234 55.7898 7.676 55.4778 7.268C55.1658 6.86 54.6798 6.656 54.0198 6.656C53.5638 6.656 53.1678 6.734 52.8318 6.89C52.5078 7.046 52.2378 7.268 52.0218 7.556C51.8178 7.844 51.6618 8.186 51.5538 8.582C51.4578 8.978 51.4098 9.416 51.4098 9.896V14H50.0058V7.574ZM67.0098 12.506H66.9738C66.7098 12.986 66.2898 13.394 65.7138 13.73C65.1498 14.054 64.4898 14.216 63.7338 14.216C63.1458 14.216 62.5938 14.108 62.0778 13.892C61.5618 13.664 61.1118 13.352 60.7278 12.956C60.3558 12.56 60.0618 12.092 59.8458 11.552C59.6298 11.012 59.5218 10.424 59.5218 9.788C59.5218 9.152 59.6298 8.564 59.8458 8.024C60.0618 7.484 60.3618 7.016 60.7458 6.62C61.1298 6.224 61.5918 5.918 62.1318 5.702C62.6838 5.474 63.2898 5.36 63.9498 5.36C64.5618 5.36 65.1198 5.486 65.6238 5.738C66.1398 5.99 66.5898 6.344 66.9738 6.8H67.0098V0.391999H68.4138V14H67.0098V12.506ZM67.0098 9.788C67.0098 9.344 66.9378 8.936 66.7938 8.564C66.6618 8.18 66.4638 7.85 66.1998 7.574C65.9358 7.286 65.6178 7.064 65.2458 6.908C64.8858 6.74 64.4778 6.656 64.0218 6.656C63.5658 6.656 63.1518 6.74 62.7798 6.908C62.4198 7.064 62.1078 7.286 61.8438 7.574C61.5798 7.85 61.3758 8.18 61.2318 8.564C61.0998 8.936 61.0338 9.344 61.0338 9.788C61.0338 10.232 61.0998 10.646 61.2318 11.03C61.3758 11.402 61.5798 11.732 61.8438 12.02C62.1078 12.296 62.4198 12.518 62.7798 12.686C63.1518 12.842 63.5658 12.92 64.0218 12.92C64.4778 12.92 64.8858 12.842 65.2458 12.686C65.6178 12.518 65.9358 12.296 66.1998 12.02C66.4638 11.732 66.6618 11.402 66.7938 11.03C66.9378 10.646 67.0098 10.232 67.0098 9.788ZM71.1553 5.576H72.5593V14H71.1553V5.576ZM70.8313 2.282C70.8313 2.006 70.9273 1.766 71.1193 1.562C71.3233 1.358 71.5693 1.256 71.8573 1.256C72.1453 1.256 72.3853 1.358 72.5773 1.562C72.7813 1.766 72.8833 2.006 72.8833 2.282C72.8833 2.582 72.7873 2.828 72.5953 3.02C72.4033 3.212 72.1573 3.308 71.8573 3.308C71.5573 3.308 71.3113 3.212 71.1193 3.02C70.9273 2.828 70.8313 2.582 70.8313 2.282ZM75.5335 11.786C75.8095 12.134 76.1095 12.41 76.4335 12.614C76.7695 12.818 77.1895 12.92 77.6935 12.92C77.9095 12.92 78.1255 12.896 78.3415 12.848C78.5695 12.8 78.7735 12.722 78.9535 12.614C79.1335 12.506 79.2775 12.374 79.3855 12.218C79.4935 12.05 79.5475 11.852 79.5475 11.624C79.5475 11.396 79.4935 11.21 79.3855 11.066C79.2895 10.922 79.1575 10.802 78.9895 10.706C78.8215 10.598 78.6295 10.514 78.4135 10.454C78.1975 10.394 77.9755 10.34 77.7475 10.292C77.3515 10.208 76.9735 10.112 76.6135 10.004C76.2535 9.896 75.9355 9.758 75.6595 9.59C75.3955 9.41 75.1795 9.182 75.0115 8.906C74.8555 8.63 74.7775 8.276 74.7775 7.844C74.7775 7.436 74.8675 7.076 75.0475 6.764C75.2275 6.452 75.4675 6.194 75.7675 5.99C76.0675 5.786 76.4035 5.63 76.7755 5.522C77.1475 5.414 77.5315 5.36 77.9275 5.36C78.5275 5.36 79.0795 5.48 79.5835 5.72C80.0995 5.96 80.5015 6.35 80.7895 6.89L79.6195 7.664C79.4395 7.364 79.1995 7.124 78.8995 6.944C78.6115 6.752 78.2575 6.656 77.8375 6.656C77.6455 6.656 77.4475 6.68 77.2435 6.728C77.0515 6.776 76.8775 6.848 76.7215 6.944C76.5655 7.04 76.4335 7.166 76.3255 7.322C76.2295 7.466 76.1815 7.634 76.1815 7.826C76.1815 8.006 76.2355 8.162 76.3435 8.294C76.4635 8.414 76.6195 8.522 76.8115 8.618C77.0155 8.714 77.2435 8.798 77.4955 8.87C77.7595 8.942 78.0295 9.002 78.3055 9.05C78.6775 9.122 79.0315 9.218 79.3675 9.338C79.7035 9.446 79.9975 9.596 80.2495 9.788C80.5015 9.98 80.6995 10.22 80.8435 10.508C80.9875 10.796 81.0595 11.15 81.0595 11.57C81.0595 12.05 80.9635 12.458 80.7715 12.794C80.5795 13.13 80.3215 13.406 79.9975 13.622C79.6855 13.826 79.3255 13.976 78.9175 14.072C78.5215 14.168 78.1135 14.216 77.6935 14.216C76.9735 14.216 76.3495 14.108 75.8215 13.892C75.3055 13.664 74.8375 13.25 74.4175 12.65L75.5335 11.786ZM83.1975 11.786C83.4735 12.134 83.7735 12.41 84.0975 12.614C84.4335 12.818 84.8535 12.92 85.3575 12.92C85.5735 12.92 85.7895 12.896 86.0055 12.848C86.2335 12.8 86.4375 12.722 86.6175 12.614C86.7975 12.506 86.9415 12.374 87.0495 12.218C87.1575 12.05 87.2115 11.852 87.2115 11.624C87.2115 11.396 87.1575 11.21 87.0495 11.066C86.9535 10.922 86.8215 10.802 86.6535 10.706C86.4855 10.598 86.2935 10.514 86.0775 10.454C85.8615 10.394 85.6395 10.34 85.4115 10.292C85.0155 10.208 84.6375 10.112 84.2775 10.004C83.9175 9.896 83.5995 9.758 83.3235 9.59C83.0595 9.41 82.8435 9.182 82.6755 8.906C82.5195 8.63 82.4415 8.276 82.4415 7.844C82.4415 7.436 82.5315 7.076 82.7115 6.764C82.8915 6.452 83.1315 6.194 83.4315 5.99C83.7315 5.786 84.0675 5.63 84.4395 5.522C84.8115 5.414 85.1955 5.36 85.5915 5.36C86.1915 5.36 86.7435 5.48 87.2475 5.72C87.7635 5.96 88.1655 6.35 88.4535 6.89L87.2835 7.664C87.1035 7.364 86.8635 7.124 86.5635 6.944C86.2755 6.752 85.9215 6.656 85.5015 6.656C85.3095 6.656 85.1115 6.68 84.9075 6.728C84.7155 6.776 84.5415 6.848 84.3855 6.944C84.2295 7.04 84.0975 7.166 83.9895 7.322C83.8935 7.466 83.8455 7.634 83.8455 7.826C83.8455 8.006 83.8995 8.162 84.0075 8.294C84.1275 8.414 84.2835 8.522 84.4755 8.618C84.6795 8.714 84.9075 8.798 85.1595 8.87C85.4235 8.942 85.6935 9.002 85.9695 9.05C86.3415 9.122 86.6955 9.218 87.0315 9.338C87.3675 9.446 87.6615 9.596 87.9135 9.788C88.1655 9.98 88.3635 10.22 88.5075 10.508C88.6515 10.796 88.7235 11.15 88.7235 11.57C88.7235 12.05 88.6275 12.458 88.4355 12.794C88.2435 13.13 87.9855 13.406 87.6615 13.622C87.3495 13.826 86.9895 13.976 86.5815 14.072C86.1855 14.168 85.7775 14.216 85.3575 14.216C84.6375 14.216 84.0135 14.108 83.4855 13.892C82.9695 13.664 82.5015 13.25 82.0815 12.65L83.1975 11.786ZM98.2056 12.47C97.7016 13.118 97.1496 13.574 96.5496 13.838C95.9496 14.09 95.2536 14.216 94.4616 14.216C93.8016 14.216 93.2076 14.102 92.6796 13.874C92.1516 13.634 91.7016 13.316 91.3296 12.92C90.9696 12.524 90.6876 12.056 90.4836 11.516C90.2916 10.976 90.1956 10.4 90.1956 9.788C90.1956 9.14 90.3036 8.546 90.5196 8.006C90.7356 7.454 91.0356 6.986 91.4196 6.602C91.8036 6.206 92.2596 5.9 92.7876 5.684C93.3156 5.468 93.8916 5.36 94.5156 5.36C95.1036 5.36 95.6436 5.462 96.1356 5.666C96.6276 5.858 97.0476 6.146 97.3956 6.53C97.7556 6.902 98.0316 7.364 98.2236 7.916C98.4156 8.456 98.5116 9.074 98.5116 9.77V10.22H91.7076C91.7316 10.58 91.8156 10.928 91.9596 11.264C92.1156 11.588 92.3136 11.876 92.5536 12.128C92.7936 12.368 93.0756 12.56 93.3996 12.704C93.7236 12.848 94.0776 12.92 94.4616 12.92C95.0736 12.92 95.5896 12.812 96.0096 12.596C96.4296 12.38 96.8076 12.062 97.1436 11.642L98.2056 12.47ZM96.9996 9.032C96.9756 8.312 96.7416 7.736 96.2976 7.304C95.8536 6.872 95.2416 6.656 94.4616 6.656C93.6816 6.656 93.0516 6.872 92.5716 7.304C92.0916 7.736 91.8036 8.312 91.7076 9.032H96.9996ZM113.037 12.002C113.037 12.386 113.049 12.746 113.073 13.082C113.097 13.418 113.109 13.724 113.109 14H111.777C111.777 13.772 111.771 13.544 111.759 13.316C111.747 13.088 111.741 12.854 111.741 12.614H111.705C111.609 12.818 111.471 13.016 111.291 13.208C111.123 13.4 110.919 13.574 110.679 13.73C110.439 13.874 110.169 13.988 109.869 14.072C109.569 14.168 109.245 14.216 108.897 14.216C108.345 14.216 107.865 14.132 107.457 13.964C107.061 13.796 106.731 13.562 106.467 13.262C106.203 12.962 106.005 12.602 105.873 12.182C105.753 11.75 105.693 11.282 105.693 10.778V5.576H107.097V10.634C107.097 11.342 107.253 11.9 107.565 12.308C107.877 12.716 108.363 12.92 109.023 12.92C109.479 12.92 109.869 12.842 110.193 12.686C110.529 12.53 110.799 12.308 111.003 12.02C111.219 11.732 111.375 11.39 111.471 10.994C111.579 10.598 111.633 10.16 111.633 9.68V5.576H113.037V12.002ZM115.821 0.391999H117.225V14H115.821V0.391999ZM124.645 6.764H122.161V10.976C122.161 11.252 122.167 11.51 122.179 11.75C122.191 11.978 122.239 12.182 122.323 12.362C122.407 12.53 122.533 12.668 122.701 12.776C122.869 12.872 123.109 12.92 123.421 12.92C123.625 12.92 123.835 12.896 124.051 12.848C124.267 12.8 124.471 12.728 124.663 12.632L124.717 13.91C124.477 14.018 124.207 14.096 123.907 14.144C123.619 14.192 123.343 14.216 123.079 14.216C122.575 14.216 122.173 14.15 121.873 14.018C121.573 13.886 121.339 13.7 121.171 13.46C121.003 13.22 120.889 12.926 120.829 12.578C120.781 12.218 120.757 11.822 120.757 11.39V6.764H118.921V5.576H120.757V3.182H122.161V5.576H124.645V6.764ZM126.365 7.574C126.365 7.19 126.353 6.83 126.329 6.494C126.305 6.158 126.293 5.852 126.293 5.576H127.625C127.625 5.804 127.631 6.032 127.643 6.26C127.655 6.488 127.661 6.722 127.661 6.962H127.697C127.793 6.758 127.925 6.56 128.093 6.368C128.273 6.176 128.483 6.008 128.723 5.864C128.963 5.708 129.233 5.588 129.533 5.504C129.833 5.408 130.157 5.36 130.505 5.36C130.601 5.36 130.697 5.366 130.793 5.378C130.889 5.39 130.985 5.414 131.081 5.45L130.991 6.872C130.751 6.8 130.499 6.764 130.235 6.764C129.371 6.764 128.741 7.046 128.345 7.61C127.961 8.162 127.769 8.924 127.769 9.896V14H126.365V7.574ZM132.819 5.576H134.223V14H132.819V5.576ZM132.495 2.282C132.495 2.006 132.591 1.766 132.783 1.562C132.987 1.358 133.233 1.256 133.521 1.256C133.809 1.256 134.049 1.358 134.241 1.562C134.445 1.766 134.547 2.006 134.547 2.282C134.547 2.582 134.451 2.828 134.259 3.02C134.067 3.212 133.821 3.308 133.521 3.308C133.221 3.308 132.975 3.212 132.783 3.02C132.591 2.828 132.495 2.582 132.495 2.282ZM143.012 7.682C142.712 7.322 142.388 7.064 142.04 6.908C141.692 6.74 141.308 6.656 140.888 6.656C140.42 6.656 140.006 6.74 139.646 6.908C139.286 7.064 138.986 7.286 138.746 7.574C138.518 7.862 138.344 8.198 138.224 8.582C138.104 8.954 138.044 9.356 138.044 9.788C138.044 10.22 138.11 10.628 138.242 11.012C138.386 11.384 138.578 11.714 138.818 12.002C139.07 12.29 139.37 12.518 139.718 12.686C140.066 12.842 140.456 12.92 140.888 12.92C141.812 12.92 142.526 12.572 143.03 11.876L144.074 12.866C143.666 13.334 143.186 13.676 142.634 13.892C142.082 14.108 141.5 14.216 140.888 14.216C140.24 14.216 139.646 14.108 139.106 13.892C138.566 13.676 138.104 13.37 137.72 12.974C137.348 12.578 137.054 12.11 136.838 11.57C136.634 11.03 136.532 10.436 136.532 9.788C136.532 9.152 136.634 8.564 136.838 8.024C137.054 7.484 137.354 7.016 137.738 6.62C138.122 6.224 138.578 5.918 139.106 5.702C139.646 5.474 140.24 5.36 140.888 5.36C141.512 5.36 142.1 5.468 142.652 5.684C143.216 5.9 143.708 6.236 144.128 6.692L143.012 7.682ZM153.225 12.47C152.721 13.118 152.169 13.574 151.569 13.838C150.969 14.09 150.273 14.216 149.481 14.216C148.821 14.216 148.227 14.102 147.699 13.874C147.171 13.634 146.721 13.316 146.349 12.92C145.989 12.524 145.707 12.056 145.503 11.516C145.311 10.976 145.215 10.4 145.215 9.788C145.215 9.14 145.323 8.546 145.539 8.006C145.755 7.454 146.055 6.986 146.439 6.602C146.823 6.206 147.279 5.9 147.807 5.684C148.335 5.468 148.911 5.36 149.535 5.36C150.123 5.36 150.663 5.462 151.155 5.666C151.647 5.858 152.067 6.146 152.415 6.53C152.775 6.902 153.051 7.364 153.243 7.916C153.435 8.456 153.531 9.074 153.531 9.77V10.22H146.727C146.751 10.58 146.835 10.928 146.979 11.264C147.135 11.588 147.333 11.876 147.573 12.128C147.813 12.368 148.095 12.56 148.419 12.704C148.743 12.848 149.097 12.92 149.481 12.92C150.093 12.92 150.609 12.812 151.029 12.596C151.449 12.38 151.827 12.062 152.163 11.642L153.225 12.47ZM152.019 9.032C151.995 8.312 151.761 7.736 151.317 7.304C150.873 6.872 150.261 6.656 149.481 6.656C148.701 6.656 148.071 6.872 147.591 7.304C147.111 7.736 146.823 8.312 146.727 9.032H152.019ZM155.883 11.786C156.159 12.134 156.459 12.41 156.783 12.614C157.119 12.818 157.539 12.92 158.043 12.92C158.259 12.92 158.475 12.896 158.691 12.848C158.919 12.8 159.123 12.722 159.303 12.614C159.483 12.506 159.627 12.374 159.735 12.218C159.843 12.05 159.897 11.852 159.897 11.624C159.897 11.396 159.843 11.21 159.735 11.066C159.639 10.922 159.507 10.802 159.339 10.706C159.171 10.598 158.979 10.514 158.763 10.454C158.547 10.394 158.325 10.34 158.097 10.292C157.701 10.208 157.323 10.112 156.963 10.004C156.603 9.896 156.285 9.758 156.009 9.59C155.745 9.41 155.529 9.182 155.361 8.906C155.205 8.63 155.127 8.276 155.127 7.844C155.127 7.436 155.217 7.076 155.397 6.764C155.577 6.452 155.817 6.194 156.117 5.99C156.417 5.786 156.753 5.63 157.125 5.522C157.497 5.414 157.881 5.36 158.277 5.36C158.877 5.36 159.429 5.48 159.933 5.72C160.449 5.96 160.851 6.35 161.139 6.89L159.969 7.664C159.789 7.364 159.549 7.124 159.249 6.944C158.961 6.752 158.607 6.656 158.187 6.656C157.995 6.656 157.797 6.68 157.593 6.728C157.401 6.776 157.227 6.848 157.071 6.944C156.915 7.04 156.783 7.166 156.675 7.322C156.579 7.466 156.531 7.634 156.531 7.826C156.531 8.006 156.585 8.162 156.693 8.294C156.813 8.414 156.969 8.522 157.161 8.618C157.365 8.714 157.593 8.798 157.845 8.87C158.109 8.942 158.379 9.002 158.655 9.05C159.027 9.122 159.381 9.218 159.717 9.338C160.053 9.446 160.347 9.596 160.599 9.788C160.851 9.98 161.049 10.22 161.193 10.508C161.337 10.796 161.409 11.15 161.409 11.57C161.409 12.05 161.313 12.458 161.121 12.794C160.929 13.13 160.671 13.406 160.347 13.622C160.035 13.826 159.675 13.976 159.267 14.072C158.871 14.168 158.463 14.216 158.043 14.216C157.323 14.216 156.699 14.108 156.171 13.892C155.655 13.664 155.187 13.25 154.767 12.65L155.883 11.786ZM1.224 38.656C1.656 38.212 2.166 37.888 2.754 37.684C3.354 37.468 3.96 37.36 4.572 37.36C5.82 37.36 6.72 37.654 7.272 38.242C7.824 38.83 8.1 39.724 8.1 40.924V44.542C8.1 44.782 8.112 45.034 8.136 45.298C8.16 45.55 8.19 45.784 8.226 46H6.876C6.828 45.808 6.798 45.598 6.786 45.37C6.786 45.13 6.786 44.92 6.786 44.74H6.75C6.474 45.172 6.102 45.526 5.634 45.802C5.178 46.078 4.626 46.216 3.978 46.216C3.546 46.216 3.138 46.162 2.754 46.054C2.382 45.946 2.052 45.79 1.764 45.586C1.488 45.37 1.266 45.106 1.098 44.794C0.93 44.482 0.846 44.122 0.846 43.714C0.846 43.018 1.026 42.472 1.386 42.076C1.746 41.68 2.19 41.386 2.718 41.194C3.258 41.002 3.834 40.882 4.446 40.834C5.07 40.786 5.64 40.762 6.156 40.762H6.696V40.51C6.696 39.898 6.51 39.436 6.138 39.124C5.778 38.812 5.268 38.656 4.608 38.656C4.152 38.656 3.702 38.734 3.258 38.89C2.826 39.034 2.442 39.262 2.106 39.574L1.224 38.656ZM5.292 41.95C4.392 41.95 3.678 42.076 3.15 42.328C2.622 42.58 2.358 42.994 2.358 43.57C2.358 44.098 2.532 44.476 2.88 44.704C3.24 44.92 3.684 45.028 4.212 45.028C4.62 45.028 4.974 44.962 5.274 44.83C5.586 44.686 5.844 44.5 6.048 44.272C6.252 44.044 6.408 43.78 6.516 43.48C6.624 43.168 6.684 42.838 6.696 42.49V41.95H5.292ZM15.274 38.764H12.79V42.976C12.79 43.252 12.796 43.51 12.808 43.75C12.82 43.978 12.868 44.182 12.952 44.362C13.036 44.53 13.162 44.668 13.33 44.776C13.498 44.872 13.738 44.92 14.05 44.92C14.254 44.92 14.464 44.896 14.68 44.848C14.896 44.8 15.1 44.728 15.292 44.632L15.346 45.91C15.106 46.018 14.836 46.096 14.536 46.144C14.248 46.192 13.972 46.216 13.708 46.216C13.204 46.216 12.802 46.15 12.502 46.018C12.202 45.886 11.968 45.7 11.8 45.46C11.632 45.22 11.518 44.926 11.458 44.578C11.41 44.218 11.386 43.822 11.386 43.39V38.764H9.54998V37.576H11.386V35.182H12.79V37.576H15.274V38.764ZM29.0059 44.506H28.9699C28.7059 44.986 28.2859 45.394 27.7099 45.73C27.1459 46.054 26.4859 46.216 25.7299 46.216C25.1419 46.216 24.5899 46.108 24.0739 45.892C23.5579 45.664 23.1079 45.352 22.7239 44.956C22.3519 44.56 22.0579 44.092 21.8419 43.552C21.6259 43.012 21.5179 42.424 21.5179 41.788C21.5179 41.152 21.6259 40.564 21.8419 40.024C22.0579 39.484 22.3579 39.016 22.7419 38.62C23.1259 38.224 23.5879 37.918 24.1279 37.702C24.6799 37.474 25.2859 37.36 25.9459 37.36C26.5579 37.36 27.1159 37.486 27.6199 37.738C28.1359 37.99 28.5859 38.344 28.9699 38.8H29.0059V32.392H30.4099V46H29.0059V44.506ZM29.0059 41.788C29.0059 41.344 28.9339 40.936 28.7899 40.564C28.6579 40.18 28.4599 39.85 28.1959 39.574C27.9319 39.286 27.6139 39.064 27.2419 38.908C26.8819 38.74 26.4739 38.656 26.0179 38.656C25.5619 38.656 25.1479 38.74 24.7759 38.908C24.4159 39.064 24.1039 39.286 23.8399 39.574C23.5759 39.85 23.3719 40.18 23.2279 40.564C23.0959 40.936 23.0299 41.344 23.0299 41.788C23.0299 42.232 23.0959 42.646 23.2279 43.03C23.3719 43.402 23.5759 43.732 23.8399 44.02C24.1039 44.296 24.4159 44.518 24.7759 44.686C25.1479 44.842 25.5619 44.92 26.0179 44.92C26.4739 44.92 26.8819 44.842 27.2419 44.686C27.6139 44.518 27.9319 44.296 28.1959 44.02C28.4599 43.732 28.6579 43.402 28.7899 43.03C28.9339 42.646 29.0059 42.232 29.0059 41.788ZM33.1514 37.576H34.5554V46H33.1514V37.576ZM32.8274 34.282C32.8274 34.006 32.9234 33.766 33.1154 33.562C33.3194 33.358 33.5654 33.256 33.8534 33.256C34.1414 33.256 34.3814 33.358 34.5734 33.562C34.7774 33.766 34.8794 34.006 34.8794 34.282C34.8794 34.582 34.7834 34.828 34.5914 35.02C34.3994 35.212 34.1534 35.308 33.8534 35.308C33.5534 35.308 33.3074 35.212 33.1154 35.02C32.9234 34.828 32.8274 34.582 32.8274 34.282ZM37.2416 38.656C37.6736 38.212 38.1836 37.888 38.7716 37.684C39.3716 37.468 39.9776 37.36 40.5896 37.36C41.8376 37.36 42.7376 37.654 43.2896 38.242C43.8416 38.83 44.1176 39.724 44.1176 40.924V44.542C44.1176 44.782 44.1296 45.034 44.1536 45.298C44.1776 45.55 44.2076 45.784 44.2436 46H42.8936C42.8456 45.808 42.8156 45.598 42.8036 45.37C42.8036 45.13 42.8036 44.92 42.8036 44.74H42.7676C42.4916 45.172 42.1196 45.526 41.6516 45.802C41.1956 46.078 40.6436 46.216 39.9956 46.216C39.5636 46.216 39.1556 46.162 38.7716 46.054C38.3996 45.946 38.0696 45.79 37.7816 45.586C37.5056 45.37 37.2836 45.106 37.1156 44.794C36.9476 44.482 36.8636 44.122 36.8636 43.714C36.8636 43.018 37.0436 42.472 37.4036 42.076C37.7636 41.68 38.2076 41.386 38.7356 41.194C39.2756 41.002 39.8516 40.882 40.4636 40.834C41.0876 40.786 41.6576 40.762 42.1736 40.762H42.7136V40.51C42.7136 39.898 42.5276 39.436 42.1556 39.124C41.7956 38.812 41.2856 38.656 40.6256 38.656C40.1696 38.656 39.7196 38.734 39.2756 38.89C38.8436 39.034 38.4596 39.262 38.1236 39.574L37.2416 38.656ZM41.3096 41.95C40.4096 41.95 39.6956 42.076 39.1676 42.328C38.6396 42.58 38.3756 42.994 38.3756 43.57C38.3756 44.098 38.5496 44.476 38.8976 44.704C39.2576 44.92 39.7016 45.028 40.2296 45.028C40.6376 45.028 40.9916 44.962 41.2916 44.83C41.6036 44.686 41.8616 44.5 42.0656 44.272C42.2696 44.044 42.4256 43.78 42.5336 43.48C42.6416 43.168 42.7016 42.838 42.7136 42.49V41.95H41.3096ZM46.6836 39.574C46.6836 39.19 46.6716 38.83 46.6476 38.494C46.6236 38.158 46.6116 37.852 46.6116 37.576H47.9436C47.9436 37.804 47.9496 38.032 47.9616 38.26C47.9736 38.488 47.9796 38.722 47.9796 38.962H48.0156C48.1116 38.758 48.2436 38.56 48.4116 38.368C48.5916 38.176 48.8016 38.008 49.0416 37.864C49.2816 37.708 49.5516 37.588 49.8516 37.504C50.1516 37.408 50.4756 37.36 50.8236 37.36C51.2796 37.36 51.6576 37.42 51.9576 37.54C52.2696 37.648 52.5276 37.786 52.7316 37.954C52.9356 38.11 53.0916 38.284 53.1996 38.476C53.3196 38.656 53.4156 38.818 53.4876 38.962C53.7996 38.458 54.1596 38.068 54.5676 37.792C54.9756 37.504 55.5036 37.36 56.1516 37.36C56.7516 37.36 57.2556 37.444 57.6636 37.612C58.0716 37.768 58.4016 38.002 58.6536 38.314C58.9056 38.614 59.0856 38.986 59.1936 39.43C59.3016 39.862 59.3556 40.348 59.3556 40.888V46H57.9516V40.96C57.9516 40.672 57.9216 40.39 57.8616 40.114C57.8016 39.838 57.6936 39.592 57.5376 39.376C57.3816 39.16 57.1716 38.986 56.9076 38.854C56.6436 38.722 56.3076 38.656 55.8996 38.656C55.5996 38.656 55.3176 38.716 55.0536 38.836C54.7896 38.956 54.5556 39.124 54.3516 39.34C54.1596 39.556 54.0036 39.82 53.8836 40.132C53.7756 40.432 53.7216 40.768 53.7216 41.14V46H52.3176V41.23C52.3176 40.294 52.1916 39.634 51.9396 39.25C51.6876 38.854 51.2736 38.656 50.6976 38.656C50.2416 38.656 49.8456 38.734 49.5096 38.89C49.1856 39.046 48.9156 39.268 48.6996 39.556C48.4956 39.844 48.3396 40.186 48.2316 40.582C48.1356 40.978 48.0876 41.416 48.0876 41.896V46H46.6836V39.574ZM67.1475 32.392H68.5515V46H67.1475V32.392ZM78.8697 44.47C78.3657 45.118 77.8137 45.574 77.2137 45.838C76.6137 46.09 75.9177 46.216 75.1257 46.216C74.4657 46.216 73.8717 46.102 73.3437 45.874C72.8157 45.634 72.3657 45.316 71.9937 44.92C71.6337 44.524 71.3517 44.056 71.1477 43.516C70.9557 42.976 70.8597 42.4 70.8597 41.788C70.8597 41.14 70.9677 40.546 71.1837 40.006C71.3997 39.454 71.6997 38.986 72.0837 38.602C72.4677 38.206 72.9237 37.9 73.4517 37.684C73.9797 37.468 74.5557 37.36 75.1797 37.36C75.7677 37.36 76.3077 37.462 76.7997 37.666C77.2917 37.858 77.7117 38.146 78.0597 38.53C78.4197 38.902 78.6957 39.364 78.8877 39.916C79.0797 40.456 79.1757 41.074 79.1757 41.77V42.22H72.3717C72.3957 42.58 72.4797 42.928 72.6237 43.264C72.7797 43.588 72.9777 43.876 73.2177 44.128C73.4577 44.368 73.7397 44.56 74.0637 44.704C74.3877 44.848 74.7417 44.92 75.1257 44.92C75.7377 44.92 76.2537 44.812 76.6737 44.596C77.0937 44.38 77.4717 44.062 77.8077 43.642L78.8697 44.47ZM77.6637 41.032C77.6397 40.312 77.4057 39.736 76.9617 39.304C76.5177 38.872 75.9057 38.656 75.1257 38.656C74.3457 38.656 73.7157 38.872 73.2357 39.304C72.7557 39.736 72.4677 40.312 72.3717 41.032H77.6637ZM87.3416 39.682C87.0416 39.322 86.7176 39.064 86.3696 38.908C86.0216 38.74 85.6376 38.656 85.2176 38.656C84.7496 38.656 84.3356 38.74 83.9756 38.908C83.6156 39.064 83.3156 39.286 83.0756 39.574C82.8476 39.862 82.6736 40.198 82.5536 40.582C82.4336 40.954 82.3736 41.356 82.3736 41.788C82.3736 42.22 82.4396 42.628 82.5716 43.012C82.7156 43.384 82.9076 43.714 83.1476 44.002C83.3996 44.29 83.6996 44.518 84.0476 44.686C84.3956 44.842 84.7856 44.92 85.2176 44.92C86.1416 44.92 86.8556 44.572 87.3596 43.876L88.4036 44.866C87.9956 45.334 87.5156 45.676 86.9636 45.892C86.4116 46.108 85.8296 46.216 85.2176 46.216C84.5696 46.216 83.9756 46.108 83.4356 45.892C82.8956 45.676 82.4336 45.37 82.0496 44.974C81.6776 44.578 81.3836 44.11 81.1676 43.57C80.9636 43.03 80.8616 42.436 80.8616 41.788C80.8616 41.152 80.9636 40.564 81.1676 40.024C81.3836 39.484 81.6836 39.016 82.0676 38.62C82.4516 38.224 82.9076 37.918 83.4356 37.702C83.9756 37.474 84.5696 37.36 85.2176 37.36C85.8416 37.36 86.4296 37.468 86.9816 37.684C87.5456 37.9 88.0376 38.236 88.4576 38.692L87.3416 39.682ZM94.6392 38.764H92.1552V42.976C92.1552 43.252 92.1612 43.51 92.1732 43.75C92.1852 43.978 92.2332 44.182 92.3172 44.362C92.4012 44.53 92.5272 44.668 92.6952 44.776C92.8632 44.872 93.1032 44.92 93.4152 44.92C93.6192 44.92 93.8292 44.896 94.0452 44.848C94.2612 44.8 94.4652 44.728 94.6572 44.632L94.7112 45.91C94.4712 46.018 94.2012 46.096 93.9012 46.144C93.6132 46.192 93.3372 46.216 93.0732 46.216C92.5692 46.216 92.1672 46.15 91.8672 46.018C91.5672 45.886 91.3332 45.7 91.1652 45.46C90.9972 45.22 90.8832 44.926 90.8232 44.578C90.7752 44.218 90.7512 43.822 90.7512 43.39V38.764H88.9152V37.576H90.7512V35.182H92.1552V37.576H94.6392V38.764ZM103.703 44.002C103.703 44.386 103.715 44.746 103.739 45.082C103.763 45.418 103.775 45.724 103.775 46H102.443C102.443 45.772 102.437 45.544 102.425 45.316C102.413 45.088 102.407 44.854 102.407 44.614H102.371C102.275 44.818 102.137 45.016 101.957 45.208C101.789 45.4 101.585 45.574 101.345 45.73C101.105 45.874 100.835 45.988 100.535 46.072C100.235 46.168 99.9113 46.216 99.5633 46.216C99.0113 46.216 98.5313 46.132 98.1233 45.964C97.7273 45.796 97.3973 45.562 97.1333 45.262C96.8693 44.962 96.6713 44.602 96.5393 44.182C96.4193 43.75 96.3593 43.282 96.3593 42.778V37.576H97.7633V42.634C97.7633 43.342 97.9193 43.9 98.2313 44.308C98.5433 44.716 99.0293 44.92 99.6893 44.92C100.145 44.92 100.535 44.842 100.859 44.686C101.195 44.53 101.465 44.308 101.669 44.02C101.885 43.732 102.041 43.39 102.137 42.994C102.245 42.598 102.299 42.16 102.299 41.68V37.576H103.703V44.002ZM106.541 43.786C106.817 44.134 107.117 44.41 107.441 44.614C107.777 44.818 108.197 44.92 108.701 44.92C108.917 44.92 109.133 44.896 109.349 44.848C109.577 44.8 109.781 44.722 109.961 44.614C110.141 44.506 110.285 44.374 110.393 44.218C110.501 44.05 110.555 43.852 110.555 43.624C110.555 43.396 110.501 43.21 110.393 43.066C110.297 42.922 110.165 42.802 109.997 42.706C109.829 42.598 109.637 42.514 109.421 42.454C109.205 42.394 108.983 42.34 108.755 42.292C108.359 42.208 107.981 42.112 107.621 42.004C107.261 41.896 106.943 41.758 106.667 41.59C106.403 41.41 106.187 41.182 106.019 40.906C105.863 40.63 105.785 40.276 105.785 39.844C105.785 39.436 105.875 39.076 106.055 38.764C106.235 38.452 106.475 38.194 106.775 37.99C107.075 37.786 107.411 37.63 107.783 37.522C108.155 37.414 108.539 37.36 108.935 37.36C109.535 37.36 110.087 37.48 110.591 37.72C111.107 37.96 111.509 38.35 111.797 38.89L110.627 39.664C110.447 39.364 110.207 39.124 109.907 38.944C109.619 38.752 109.265 38.656 108.845 38.656C108.653 38.656 108.455 38.68 108.251 38.728C108.059 38.776 107.885 38.848 107.729 38.944C107.573 39.04 107.441 39.166 107.333 39.322C107.237 39.466 107.189 39.634 107.189 39.826C107.189 40.006 107.243 40.162 107.351 40.294C107.471 40.414 107.627 40.522 107.819 40.618C108.023 40.714 108.251 40.798 108.503 40.87C108.767 40.942 109.037 41.002 109.313 41.05C109.685 41.122 110.039 41.218 110.375 41.338C110.711 41.446 111.005 41.596 111.257 41.788C111.509 41.98 111.707 42.22 111.851 42.508C111.995 42.796 112.067 43.15 112.067 43.57C112.067 44.05 111.971 44.458 111.779 44.794C111.587 45.13 111.329 45.406 111.005 45.622C110.693 45.826 110.333 45.976 109.925 46.072C109.529 46.168 109.121 46.216 108.701 46.216C107.981 46.216 107.357 46.108 106.829 45.892C106.313 45.664 105.845 45.25 105.425 44.65L106.541 43.786ZM119.035 39.574C119.035 39.19 119.023 38.83 118.999 38.494C118.975 38.158 118.963 37.852 118.963 37.576H120.295C120.295 37.804 120.301 38.032 120.313 38.26C120.325 38.488 120.331 38.722 120.331 38.962H120.367C120.463 38.758 120.595 38.56 120.763 38.368C120.943 38.176 121.153 38.008 121.393 37.864C121.633 37.708 121.903 37.588 122.203 37.504C122.503 37.408 122.827 37.36 123.175 37.36C123.727 37.36 124.201 37.444 124.597 37.612C125.005 37.78 125.341 38.014 125.605 38.314C125.869 38.614 126.061 38.98 126.181 39.412C126.313 39.832 126.379 40.294 126.379 40.798V46H124.975V40.942C124.975 40.234 124.819 39.676 124.507 39.268C124.195 38.86 123.709 38.656 123.049 38.656C122.593 38.656 122.197 38.734 121.861 38.89C121.537 39.046 121.267 39.268 121.051 39.556C120.847 39.844 120.691 40.186 120.583 40.582C120.487 40.978 120.439 41.416 120.439 41.896V46H119.035V39.574ZM136.381 44.002C136.381 44.386 136.393 44.746 136.417 45.082C136.441 45.418 136.453 45.724 136.453 46H135.121C135.121 45.772 135.115 45.544 135.103 45.316C135.091 45.088 135.085 44.854 135.085 44.614H135.049C134.953 44.818 134.815 45.016 134.635 45.208C134.467 45.4 134.263 45.574 134.023 45.73C133.783 45.874 133.513 45.988 133.213 46.072C132.913 46.168 132.589 46.216 132.241 46.216C131.689 46.216 131.209 46.132 130.801 45.964C130.405 45.796 130.075 45.562 129.811 45.262C129.547 44.962 129.349 44.602 129.217 44.182C129.097 43.75 129.037 43.282 129.037 42.778V37.576H130.441V42.634C130.441 43.342 130.597 43.9 130.909 44.308C131.221 44.716 131.707 44.92 132.367 44.92C132.823 44.92 133.213 44.842 133.537 44.686C133.873 44.53 134.143 44.308 134.347 44.02C134.563 43.732 134.719 43.39 134.815 42.994C134.923 42.598 134.977 42.16 134.977 41.68V37.576H136.381V44.002ZM139.165 32.392H140.569V46H139.165V32.392ZM143.507 32.392H144.911V46H143.507V32.392ZM147.597 38.656C148.029 38.212 148.539 37.888 149.127 37.684C149.727 37.468 150.333 37.36 150.945 37.36C152.193 37.36 153.093 37.654 153.645 38.242C154.197 38.83 154.473 39.724 154.473 40.924V44.542C154.473 44.782 154.485 45.034 154.509 45.298C154.533 45.55 154.563 45.784 154.599 46H153.249C153.201 45.808 153.171 45.598 153.159 45.37C153.159 45.13 153.159 44.92 153.159 44.74H153.123C152.847 45.172 152.475 45.526 152.007 45.802C151.551 46.078 150.999 46.216 150.351 46.216C149.919 46.216 149.511 46.162 149.127 46.054C148.755 45.946 148.425 45.79 148.137 45.586C147.861 45.37 147.639 45.106 147.471 44.794C147.303 44.482 147.219 44.122 147.219 43.714C147.219 43.018 147.399 42.472 147.759 42.076C148.119 41.68 148.563 41.386 149.091 41.194C149.631 41.002 150.207 40.882 150.819 40.834C151.443 40.786 152.013 40.762 152.529 40.762H153.069V40.51C153.069 39.898 152.883 39.436 152.511 39.124C152.151 38.812 151.641 38.656 150.981 38.656C150.525 38.656 150.075 38.734 149.631 38.89C149.199 39.034 148.815 39.262 148.479 39.574L147.597 38.656ZM151.665 41.95C150.765 41.95 150.051 42.076 149.523 42.328C148.995 42.58 148.731 42.994 148.731 43.57C148.731 44.098 148.905 44.476 149.253 44.704C149.613 44.92 150.057 45.028 150.585 45.028C150.993 45.028 151.347 44.962 151.647 44.83C151.959 44.686 152.217 44.5 152.421 44.272C152.625 44.044 152.781 43.78 152.889 43.48C152.997 43.168 153.057 42.838 153.069 42.49V41.95H151.665ZM157.039 39.574C157.039 39.19 157.027 38.83 157.003 38.494C156.979 38.158 156.967 37.852 156.967 37.576H158.299C158.299 37.804 158.305 38.032 158.317 38.26C158.329 38.488 158.335 38.722 158.335 38.962H158.371C158.467 38.758 158.599 38.56 158.767 38.368C158.947 38.176 159.157 38.008 159.397 37.864C159.637 37.708 159.907 37.588 160.207 37.504C160.507 37.408 160.831 37.36 161.179 37.36C161.635 37.36 162.013 37.42 162.313 37.54C162.625 37.648 162.883 37.786 163.087 37.954C163.291 38.11 163.447 38.284 163.555 38.476C163.675 38.656 163.771 38.818 163.843 38.962C164.155 38.458 164.515 38.068 164.923 37.792C165.331 37.504 165.859 37.36 166.507 37.36C167.107 37.36 167.611 37.444 168.019 37.612C168.427 37.768 168.757 38.002 169.009 38.314C169.261 38.614 169.441 38.986 169.549 39.43C169.657 39.862 169.711 40.348 169.711 40.888V46H168.307V40.96C168.307 40.672 168.277 40.39 168.217 40.114C168.157 39.838 168.049 39.592 167.893 39.376C167.737 39.16 167.527 38.986 167.263 38.854C166.999 38.722 166.663 38.656 166.255 38.656C165.955 38.656 165.673 38.716 165.409 38.836C165.145 38.956 164.911 39.124 164.707 39.34C164.515 39.556 164.359 39.82 164.239 40.132C164.131 40.432 164.077 40.768 164.077 41.14V46H162.673V41.23C162.673 40.294 162.547 39.634 162.295 39.25C162.043 38.854 161.629 38.656 161.053 38.656C160.597 38.656 160.201 38.734 159.865 38.89C159.541 39.046 159.271 39.268 159.055 39.556C158.851 39.844 158.695 40.186 158.587 40.582C158.491 40.978 158.443 41.416 158.443 41.896V46H157.039V39.574ZM173.537 43.948C173.837 43.948 174.089 44.056 174.293 44.272C174.509 44.476 174.617 44.728 174.617 45.028C174.617 45.328 174.503 45.586 174.275 45.802C174.059 46.006 173.813 46.108 173.537 46.108C173.261 46.108 173.009 46.006 172.781 45.802C172.565 45.586 172.457 45.328 172.457 45.028C172.457 44.728 172.559 44.476 172.763 44.272C172.979 44.056 173.237 43.948 173.537 43.948ZM1.584 65.256H3.492L10.872 75.84H10.908V65.256H12.42V78H10.512L3.132 67.416H3.096V78H1.584V65.256ZM15.4678 69.576H16.8718V78H15.4678V69.576ZM15.1438 66.282C15.1438 66.006 15.2398 65.766 15.4318 65.562C15.6358 65.358 15.8818 65.256 16.1698 65.256C16.4578 65.256 16.6978 65.358 16.8898 65.562C17.0938 65.766 17.1958 66.006 17.1958 66.282C17.1958 66.582 17.0998 66.828 16.9078 67.02C16.7158 67.212 16.4698 67.308 16.1698 67.308C15.8698 67.308 15.6238 67.212 15.4318 67.02C15.2398 66.828 15.1438 66.582 15.1438 66.282ZM19.846 75.786C20.122 76.134 20.422 76.41 20.746 76.614C21.082 76.818 21.502 76.92 22.006 76.92C22.222 76.92 22.438 76.896 22.654 76.848C22.882 76.8 23.086 76.722 23.266 76.614C23.446 76.506 23.59 76.374 23.698 76.218C23.806 76.05 23.86 75.852 23.86 75.624C23.86 75.396 23.806 75.21 23.698 75.066C23.602 74.922 23.47 74.802 23.302 74.706C23.134 74.598 22.942 74.514 22.726 74.454C22.51 74.394 22.288 74.34 22.06 74.292C21.664 74.208 21.286 74.112 20.926 74.004C20.566 73.896 20.248 73.758 19.972 73.59C19.708 73.41 19.492 73.182 19.324 72.906C19.168 72.63 19.09 72.276 19.09 71.844C19.09 71.436 19.18 71.076 19.36 70.764C19.54 70.452 19.78 70.194 20.08 69.99C20.38 69.786 20.716 69.63 21.088 69.522C21.46 69.414 21.844 69.36 22.24 69.36C22.84 69.36 23.392 69.48 23.896 69.72C24.412 69.96 24.814 70.35 25.102 70.89L23.932 71.664C23.752 71.364 23.512 71.124 23.212 70.944C22.924 70.752 22.57 70.656 22.15 70.656C21.958 70.656 21.76 70.68 21.556 70.728C21.364 70.776 21.19 70.848 21.034 70.944C20.878 71.04 20.746 71.166 20.638 71.322C20.542 71.466 20.494 71.634 20.494 71.826C20.494 72.006 20.548 72.162 20.656 72.294C20.776 72.414 20.932 72.522 21.124 72.618C21.328 72.714 21.556 72.798 21.808 72.87C22.072 72.942 22.342 73.002 22.618 73.05C22.99 73.122 23.344 73.218 23.68 73.338C24.016 73.446 24.31 73.596 24.562 73.788C24.814 73.98 25.012 74.22 25.156 74.508C25.3 74.796 25.372 75.15 25.372 75.57C25.372 76.05 25.276 76.458 25.084 76.794C24.892 77.13 24.634 77.406 24.31 77.622C23.998 77.826 23.638 77.976 23.23 78.072C22.834 78.168 22.426 78.216 22.006 78.216C21.286 78.216 20.662 78.108 20.134 77.892C19.618 77.664 19.15 77.25 18.73 76.65L19.846 75.786ZM27.456 64.392H28.86V78H27.456V64.392ZM32.6443 80.484H31.2583L32.4823 76.164H34.1203L32.6443 80.484ZM41.8538 75.786C42.1298 76.134 42.4298 76.41 42.7538 76.614C43.0898 76.818 43.5098 76.92 44.0138 76.92C44.2298 76.92 44.4458 76.896 44.6618 76.848C44.8898 76.8 45.0938 76.722 45.2738 76.614C45.4538 76.506 45.5978 76.374 45.7058 76.218C45.8138 76.05 45.8678 75.852 45.8678 75.624C45.8678 75.396 45.8138 75.21 45.7058 75.066C45.6098 74.922 45.4778 74.802 45.3098 74.706C45.1418 74.598 44.9498 74.514 44.7338 74.454C44.5178 74.394 44.2958 74.34 44.0678 74.292C43.6718 74.208 43.2938 74.112 42.9338 74.004C42.5738 73.896 42.2558 73.758 41.9798 73.59C41.7158 73.41 41.4998 73.182 41.3318 72.906C41.1758 72.63 41.0978 72.276 41.0978 71.844C41.0978 71.436 41.1878 71.076 41.3678 70.764C41.5478 70.452 41.7878 70.194 42.0878 69.99C42.3878 69.786 42.7238 69.63 43.0958 69.522C43.4678 69.414 43.8518 69.36 44.2478 69.36C44.8478 69.36 45.3998 69.48 45.9038 69.72C46.4198 69.96 46.8218 70.35 47.1098 70.89L45.9398 71.664C45.7598 71.364 45.5198 71.124 45.2198 70.944C44.9318 70.752 44.5778 70.656 44.1578 70.656C43.9658 70.656 43.7678 70.68 43.5638 70.728C43.3718 70.776 43.1978 70.848 43.0418 70.944C42.8858 71.04 42.7538 71.166 42.6458 71.322C42.5498 71.466 42.5018 71.634 42.5018 71.826C42.5018 72.006 42.5558 72.162 42.6638 72.294C42.7838 72.414 42.9398 72.522 43.1318 72.618C43.3358 72.714 43.5638 72.798 43.8158 72.87C44.0798 72.942 44.3498 73.002 44.6258 73.05C44.9978 73.122 45.3518 73.218 45.6878 73.338C46.0238 73.446 46.3178 73.596 46.5698 73.788C46.8218 73.98 47.0198 74.22 47.1638 74.508C47.3078 74.796 47.3798 75.15 47.3798 75.57C47.3798 76.05 47.2838 76.458 47.0918 76.794C46.8998 77.13 46.6418 77.406 46.3178 77.622C46.0058 77.826 45.6458 77.976 45.2378 78.072C44.8418 78.168 44.4338 78.216 44.0138 78.216C43.2938 78.216 42.6698 78.108 42.1418 77.892C41.6258 77.664 41.1578 77.25 40.7378 76.65L41.8538 75.786ZM49.2299 70.656C49.6619 70.212 50.1719 69.888 50.7599 69.684C51.3599 69.468 51.9659 69.36 52.5779 69.36C53.8259 69.36 54.7259 69.654 55.2779 70.242C55.8299 70.83 56.1059 71.724 56.1059 72.924V76.542C56.1059 76.782 56.1179 77.034 56.1419 77.298C56.1659 77.55 56.1959 77.784 56.2319 78H54.8819C54.8339 77.808 54.8039 77.598 54.7919 77.37C54.7919 77.13 54.7919 76.92 54.7919 76.74H54.7559C54.4799 77.172 54.1079 77.526 53.6399 77.802C53.1839 78.078 52.6319 78.216 51.9839 78.216C51.5519 78.216 51.1439 78.162 50.7599 78.054C50.3879 77.946 50.0579 77.79 49.7699 77.586C49.4939 77.37 49.2719 77.106 49.1039 76.794C48.9359 76.482 48.8519 76.122 48.8519 75.714C48.8519 75.018 49.0319 74.472 49.3919 74.076C49.7519 73.68 50.1959 73.386 50.7239 73.194C51.2639 73.002 51.8399 72.882 52.4519 72.834C53.0759 72.786 53.6459 72.762 54.1619 72.762H54.7019V72.51C54.7019 71.898 54.5159 71.436 54.1439 71.124C53.7839 70.812 53.2739 70.656 52.6139 70.656C52.1579 70.656 51.7079 70.734 51.2639 70.89C50.8319 71.034 50.4479 71.262 50.1119 71.574L49.2299 70.656ZM53.2979 73.95C52.3979 73.95 51.6839 74.076 51.1559 74.328C50.6279 74.58 50.3639 74.994 50.3639 75.57C50.3639 76.098 50.5379 76.476 50.8859 76.704C51.2459 76.92 51.6899 77.028 52.2179 77.028C52.6259 77.028 52.9799 76.962 53.2799 76.83C53.5919 76.686 53.8499 76.5 54.0539 76.272C54.2579 76.044 54.4139 75.78 54.5219 75.48C54.6299 75.168 54.6899 74.838 54.7019 74.49V73.95H53.2979ZM67.0778 77.622C67.0778 79.158 66.6818 80.322 65.8898 81.114C65.1098 81.918 63.9758 82.32 62.4878 82.32C61.6598 82.32 60.9098 82.2 60.2378 81.96C59.5778 81.72 58.9478 81.306 58.3478 80.718L59.3558 79.566C59.7998 80.046 60.2678 80.406 60.7598 80.646C61.2638 80.898 61.8398 81.024 62.4878 81.024C63.1118 81.024 63.6278 80.928 64.0358 80.736C64.4558 80.556 64.7858 80.304 65.0258 79.98C65.2658 79.668 65.4338 79.308 65.5298 78.9C65.6258 78.492 65.6738 78.066 65.6738 77.622V76.542H65.6378C65.3018 77.082 64.8638 77.478 64.3238 77.73C63.7838 77.982 63.2318 78.108 62.6678 78.108C62.0078 78.108 61.4018 78 60.8498 77.784C60.2978 77.568 59.8238 77.268 59.4278 76.884C59.0318 76.5 58.7258 76.044 58.5098 75.516C58.2938 74.988 58.1858 74.412 58.1858 73.788C58.1858 73.104 58.2938 72.486 58.5098 71.934C58.7258 71.382 59.0258 70.92 59.4098 70.548C59.8058 70.164 60.2798 69.87 60.8318 69.666C61.3838 69.462 61.9958 69.36 62.6678 69.36C62.9558 69.36 63.2438 69.396 63.5318 69.468C63.8198 69.528 64.0958 69.63 64.3598 69.774C64.6358 69.906 64.8818 70.08 65.0978 70.296C65.3138 70.5 65.4938 70.74 65.6378 71.016H65.6738V69.576H67.0778V77.622ZM59.6978 73.788C59.6978 74.22 59.7758 74.622 59.9318 74.994C60.0878 75.354 60.2978 75.672 60.5618 75.948C60.8378 76.212 61.1558 76.422 61.5158 76.578C61.8758 76.734 62.2598 76.812 62.6678 76.812C63.1478 76.812 63.5738 76.728 63.9458 76.56C64.3178 76.392 64.6298 76.17 64.8818 75.894C65.1458 75.606 65.3438 75.282 65.4758 74.922C65.6078 74.55 65.6738 74.16 65.6738 73.752C65.6738 73.296 65.6018 72.882 65.4578 72.51C65.3138 72.126 65.1098 71.796 64.8458 71.52C64.5818 71.244 64.2638 71.034 63.8918 70.89C63.5198 70.734 63.1118 70.656 62.6678 70.656C62.2238 70.656 61.8158 70.74 61.4438 70.908C61.0838 71.064 60.7718 71.286 60.5078 71.574C60.2558 71.85 60.0578 72.18 59.9138 72.564C59.7698 72.936 59.6978 73.344 59.6978 73.788ZM69.8018 69.576H71.2058V78H69.8018V69.576ZM69.4778 66.282C69.4778 66.006 69.5738 65.766 69.7658 65.562C69.9698 65.358 70.2158 65.256 70.5038 65.256C70.7918 65.256 71.0318 65.358 71.2238 65.562C71.4278 65.766 71.5298 66.006 71.5298 66.282C71.5298 66.582 71.4338 66.828 71.2418 67.02C71.0498 67.212 70.8038 67.308 70.5038 67.308C70.2038 67.308 69.9578 67.212 69.7658 67.02C69.5738 66.828 69.4778 66.582 69.4778 66.282ZM78.608 70.764H76.124V74.976C76.124 75.252 76.13 75.51 76.142 75.75C76.154 75.978 76.202 76.182 76.286 76.362C76.37 76.53 76.496 76.668 76.664 76.776C76.832 76.872 77.072 76.92 77.384 76.92C77.588 76.92 77.798 76.896 78.014 76.848C78.23 76.8 78.434 76.728 78.626 76.632L78.68 77.91C78.44 78.018 78.17 78.096 77.87 78.144C77.582 78.192 77.306 78.216 77.042 78.216C76.538 78.216 76.136 78.15 75.836 78.018C75.536 77.886 75.302 77.7 75.134 77.46C74.966 77.22 74.852 76.926 74.792 76.578C74.744 76.218 74.72 75.822 74.72 75.39V70.764H72.884V69.576H74.72V67.182H76.124V69.576H78.608V70.764ZM84.9537 70.764H82.4697V74.976C82.4697 75.252 82.4757 75.51 82.4877 75.75C82.4997 75.978 82.5477 76.182 82.6317 76.362C82.7157 76.53 82.8417 76.668 83.0097 76.776C83.1777 76.872 83.4177 76.92 83.7297 76.92C83.9337 76.92 84.1437 76.896 84.3597 76.848C84.5757 76.8 84.7797 76.728 84.9717 76.632L85.0257 77.91C84.7857 78.018 84.5157 78.096 84.2157 78.144C83.9277 78.192 83.6517 78.216 83.3877 78.216C82.8837 78.216 82.4817 78.15 82.1817 78.018C81.8817 77.886 81.6477 77.7 81.4797 77.46C81.3117 77.22 81.1977 76.926 81.1377 76.578C81.0897 76.218 81.0657 75.822 81.0657 75.39V70.764H79.2297V69.576H81.0657V67.182H82.4697V69.576H84.9537V70.764ZM86.8174 69.576H88.2214V78H86.8174V69.576ZM86.4934 66.282C86.4934 66.006 86.5894 65.766 86.7814 65.562C86.9854 65.358 87.2314 65.256 87.5194 65.256C87.8074 65.256 88.0474 65.358 88.2394 65.562C88.4434 65.766 88.5454 66.006 88.5454 66.282C88.5454 66.582 88.4494 66.828 88.2574 67.02C88.0654 67.212 87.8194 67.308 87.5194 67.308C87.2194 67.308 86.9734 67.212 86.7814 67.02C86.5894 66.828 86.4934 66.582 86.4934 66.282ZM91.1956 75.786C91.4716 76.134 91.7716 76.41 92.0956 76.614C92.4316 76.818 92.8516 76.92 93.3556 76.92C93.5716 76.92 93.7876 76.896 94.0036 76.848C94.2316 76.8 94.4356 76.722 94.6156 76.614C94.7956 76.506 94.9396 76.374 95.0476 76.218C95.1556 76.05 95.2096 75.852 95.2096 75.624C95.2096 75.396 95.1556 75.21 95.0476 75.066C94.9516 74.922 94.8196 74.802 94.6516 74.706C94.4836 74.598 94.2916 74.514 94.0756 74.454C93.8596 74.394 93.6376 74.34 93.4096 74.292C93.0136 74.208 92.6356 74.112 92.2756 74.004C91.9156 73.896 91.5976 73.758 91.3216 73.59C91.0576 73.41 90.8416 73.182 90.6736 72.906C90.5176 72.63 90.4396 72.276 90.4396 71.844C90.4396 71.436 90.5296 71.076 90.7096 70.764C90.8896 70.452 91.1296 70.194 91.4296 69.99C91.7296 69.786 92.0656 69.63 92.4376 69.522C92.8096 69.414 93.1936 69.36 93.5896 69.36C94.1896 69.36 94.7416 69.48 95.2456 69.72C95.7616 69.96 96.1636 70.35 96.4516 70.89L95.2816 71.664C95.1016 71.364 94.8616 71.124 94.5616 70.944C94.2736 70.752 93.9196 70.656 93.4996 70.656C93.3076 70.656 93.1096 70.68 92.9056 70.728C92.7136 70.776 92.5396 70.848 92.3836 70.944C92.2276 71.04 92.0956 71.166 91.9876 71.322C91.8916 71.466 91.8436 71.634 91.8436 71.826C91.8436 72.006 91.8976 72.162 92.0056 72.294C92.1256 72.414 92.2816 72.522 92.4736 72.618C92.6776 72.714 92.9056 72.798 93.1576 72.87C93.4216 72.942 93.6916 73.002 93.9676 73.05C94.3396 73.122 94.6936 73.218 95.0296 73.338C95.3656 73.446 95.6596 73.596 95.9116 73.788C96.1636 73.98 96.3616 74.22 96.5056 74.508C96.6496 74.796 96.7216 75.15 96.7216 75.57C96.7216 76.05 96.6256 76.458 96.4336 76.794C96.2416 77.13 95.9836 77.406 95.6596 77.622C95.3476 77.826 94.9876 77.976 94.5796 78.072C94.1836 78.168 93.7756 78.216 93.3556 78.216C92.6356 78.216 92.0116 78.108 91.4836 77.892C90.9676 77.664 90.4996 77.25 90.0796 76.65L91.1956 75.786ZM107.523 78H105.975L102.537 69.576H104.175L106.803 76.182H106.839L109.341 69.576H110.853L107.523 78ZM112.499 69.576H113.903V78H112.499V69.576ZM112.175 66.282C112.175 66.006 112.271 65.766 112.463 65.562C112.667 65.358 112.913 65.256 113.201 65.256C113.489 65.256 113.729 65.358 113.921 65.562C114.125 65.766 114.227 66.006 114.227 66.282C114.227 66.582 114.131 66.828 113.939 67.02C113.747 67.212 113.501 67.308 113.201 67.308C112.901 67.308 112.655 67.212 112.463 67.02C112.271 66.828 112.175 66.582 112.175 66.282ZM120.531 78H118.983L115.545 69.576H117.183L119.811 76.182H119.847L122.349 69.576H123.861L120.531 78ZM132.905 76.47C132.401 77.118 131.849 77.574 131.249 77.838C130.649 78.09 129.953 78.216 129.161 78.216C128.501 78.216 127.907 78.102 127.379 77.874C126.851 77.634 126.401 77.316 126.029 76.92C125.669 76.524 125.387 76.056 125.183 75.516C124.991 74.976 124.895 74.4 124.895 73.788C124.895 73.14 125.003 72.546 125.219 72.006C125.435 71.454 125.735 70.986 126.119 70.602C126.503 70.206 126.959 69.9 127.487 69.684C128.015 69.468 128.591 69.36 129.215 69.36C129.803 69.36 130.343 69.462 130.835 69.666C131.327 69.858 131.747 70.146 132.095 70.53C132.455 70.902 132.731 71.364 132.923 71.916C133.115 72.456 133.211 73.074 133.211 73.77V74.22H126.407C126.431 74.58 126.515 74.928 126.659 75.264C126.815 75.588 127.013 75.876 127.253 76.128C127.493 76.368 127.775 76.56 128.099 76.704C128.423 76.848 128.777 76.92 129.161 76.92C129.773 76.92 130.289 76.812 130.709 76.596C131.129 76.38 131.507 76.062 131.843 75.642L132.905 76.47ZM131.699 73.032C131.675 72.312 131.441 71.736 130.997 71.304C130.553 70.872 129.941 70.656 129.161 70.656C128.381 70.656 127.751 70.872 127.271 71.304C126.791 71.736 126.503 72.312 126.407 73.032H131.699ZM135.383 71.574C135.383 71.19 135.371 70.83 135.347 70.494C135.323 70.158 135.311 69.852 135.311 69.576H136.643C136.643 69.804 136.649 70.032 136.661 70.26C136.673 70.488 136.679 70.722 136.679 70.962H136.715C136.811 70.758 136.943 70.56 137.111 70.368C137.291 70.176 137.501 70.008 137.741 69.864C137.981 69.708 138.251 69.588 138.551 69.504C138.851 69.408 139.175 69.36 139.523 69.36C139.619 69.36 139.715 69.366 139.811 69.378C139.907 69.39 140.003 69.414 140.099 69.45L140.009 70.872C139.769 70.8 139.517 70.764 139.253 70.764C138.389 70.764 137.759 71.046 137.363 71.61C136.979 72.162 136.787 72.924 136.787 73.896V78H135.383V71.574ZM141.711 71.574C141.711 71.19 141.699 70.83 141.675 70.494C141.651 70.158 141.639 69.852 141.639 69.576H142.971C142.971 69.804 142.977 70.032 142.989 70.26C143.001 70.488 143.007 70.722 143.007 70.962H143.043C143.139 70.758 143.271 70.56 143.439 70.368C143.619 70.176 143.829 70.008 144.069 69.864C144.309 69.708 144.579 69.588 144.879 69.504C145.179 69.408 145.503 69.36 145.851 69.36C145.947 69.36 146.043 69.366 146.139 69.378C146.235 69.39 146.331 69.414 146.427 69.45L146.337 70.872C146.097 70.8 145.845 70.764 145.581 70.764C144.717 70.764 144.087 71.046 143.691 71.61C143.307 72.162 143.115 72.924 143.115 73.896V78H141.711V71.574ZM147.931 70.656C148.363 70.212 148.873 69.888 149.461 69.684C150.061 69.468 150.667 69.36 151.279 69.36C152.527 69.36 153.427 69.654 153.979 70.242C154.531 70.83 154.807 71.724 154.807 72.924V76.542C154.807 76.782 154.819 77.034 154.843 77.298C154.867 77.55 154.897 77.784 154.933 78H153.583C153.535 77.808 153.505 77.598 153.493 77.37C153.493 77.13 153.493 76.92 153.493 76.74H153.457C153.181 77.172 152.809 77.526 152.341 77.802C151.885 78.078 151.333 78.216 150.685 78.216C150.253 78.216 149.845 78.162 149.461 78.054C149.089 77.946 148.759 77.79 148.471 77.586C148.195 77.37 147.973 77.106 147.805 76.794C147.637 76.482 147.553 76.122 147.553 75.714C147.553 75.018 147.733 74.472 148.093 74.076C148.453 73.68 148.897 73.386 149.425 73.194C149.965 73.002 150.541 72.882 151.153 72.834C151.777 72.786 152.347 72.762 152.863 72.762H153.403V72.51C153.403 71.898 153.217 71.436 152.845 71.124C152.485 70.812 151.975 70.656 151.315 70.656C150.859 70.656 150.409 70.734 149.965 70.89C149.533 71.034 149.149 71.262 148.813 71.574L147.931 70.656ZM151.999 73.95C151.099 73.95 150.385 74.076 149.857 74.328C149.329 74.58 149.065 74.994 149.065 75.57C149.065 76.098 149.239 76.476 149.587 76.704C149.947 76.92 150.391 77.028 150.919 77.028C151.327 77.028 151.681 76.962 151.981 76.83C152.293 76.686 152.551 76.5 152.755 76.272C152.959 76.044 153.115 75.78 153.223 75.48C153.331 75.168 153.391 74.838 153.403 74.49V73.95H151.999ZM8.856 108.47C8.352 109.118 7.8 109.574 7.2 109.838C6.6 110.09 5.904 110.216 5.112 110.216C4.452 110.216 3.858 110.102 3.33 109.874C2.802 109.634 2.352 109.316 1.98 108.92C1.62 108.524 1.338 108.056 1.134 107.516C0.942 106.976 0.846 106.4 0.846 105.788C0.846 105.14 0.954 104.546 1.17 104.006C1.386 103.454 1.686 102.986 2.07 102.602C2.454 102.206 2.91 101.9 3.438 101.684C3.966 101.468 4.542 101.36 5.166 101.36C5.754 101.36 6.294 101.462 6.786 101.666C7.278 101.858 7.698 102.146 8.046 102.53C8.406 102.902 8.682 103.364 8.874 103.916C9.066 104.456 9.162 105.074 9.162 105.77V106.22H2.358C2.382 106.58 2.466 106.928 2.61 107.264C2.766 107.588 2.964 107.876 3.204 108.128C3.444 108.368 3.726 108.56 4.05 108.704C4.374 108.848 4.728 108.92 5.112 108.92C5.724 108.92 6.24 108.812 6.66 108.596C7.08 108.38 7.458 108.062 7.794 107.642L8.856 108.47ZM7.65 105.032C7.626 104.312 7.392 103.736 6.948 103.304C6.504 102.872 5.892 102.656 5.112 102.656C4.332 102.656 3.702 102.872 3.222 103.304C2.742 103.736 2.454 104.312 2.358 105.032H7.65ZM11.334 103.574C11.334 103.19 11.322 102.83 11.298 102.494C11.274 102.158 11.262 101.852 11.262 101.576H12.594C12.594 101.804 12.6 102.032 12.612 102.26C12.624 102.488 12.63 102.722 12.63 102.962H12.666C12.762 102.758 12.894 102.56 13.062 102.368C13.242 102.176 13.452 102.008 13.692 101.864C13.932 101.708 14.202 101.588 14.502 101.504C14.802 101.408 15.126 101.36 15.474 101.36C16.026 101.36 16.5 101.444 16.896 101.612C17.304 101.78 17.64 102.014 17.904 102.314C18.168 102.614 18.36 102.98 18.48 103.412C18.612 103.832 18.678 104.294 18.678 104.798V110H17.274V104.942C17.274 104.234 17.118 103.676 16.806 103.268C16.494 102.86 16.008 102.656 15.348 102.656C14.892 102.656 14.496 102.734 14.16 102.89C13.836 103.046 13.566 103.268 13.35 103.556C13.146 103.844 12.99 104.186 12.882 104.582C12.786 104.978 12.738 105.416 12.738 105.896V110H11.334V103.574ZM21.4619 101.576H22.8659V110H21.4619V101.576ZM21.1379 98.282C21.1379 98.006 21.2339 97.766 21.4259 97.562C21.6299 97.358 21.8759 97.256 22.1639 97.256C22.4519 97.256 22.6919 97.358 22.8839 97.562C23.0879 97.766 23.1899 98.006 23.1899 98.282C23.1899 98.582 23.0939 98.828 22.9019 99.02C22.7099 99.212 22.4639 99.308 22.1639 99.308C21.8639 99.308 21.6179 99.212 21.4259 99.02C21.2339 98.828 21.1379 98.582 21.1379 98.282ZM25.6601 103.574C25.6601 103.19 25.6481 102.83 25.6241 102.494C25.6001 102.158 25.5881 101.852 25.5881 101.576H26.9201C26.9201 101.804 26.9261 102.032 26.9381 102.26C26.9501 102.488 26.9561 102.722 26.9561 102.962H26.9921C27.0881 102.758 27.2201 102.56 27.3881 102.368C27.5681 102.176 27.7781 102.008 28.0181 101.864C28.2581 101.708 28.5281 101.588 28.8281 101.504C29.1281 101.408 29.4521 101.36 29.8001 101.36C30.2561 101.36 30.6341 101.42 30.9341 101.54C31.2461 101.648 31.5041 101.786 31.7081 101.954C31.9121 102.11 32.0681 102.284 32.1761 102.476C32.2961 102.656 32.3921 102.818 32.4641 102.962C32.7761 102.458 33.1361 102.068 33.5441 101.792C33.9521 101.504 34.4801 101.36 35.1281 101.36C35.7281 101.36 36.2321 101.444 36.6401 101.612C37.0481 101.768 37.3781 102.002 37.6301 102.314C37.8821 102.614 38.0621 102.986 38.1701 103.43C38.2781 103.862 38.3321 104.348 38.3321 104.888V110H36.9281V104.96C36.9281 104.672 36.8981 104.39 36.8381 104.114C36.7781 103.838 36.6701 103.592 36.5141 103.376C36.3581 103.16 36.1481 102.986 35.8841 102.854C35.6201 102.722 35.2841 102.656 34.8761 102.656C34.5761 102.656 34.2941 102.716 34.0301 102.836C33.7661 102.956 33.5321 103.124 33.3281 103.34C33.1361 103.556 32.9801 103.82 32.8601 104.132C32.7521 104.432 32.6981 104.768 32.6981 105.14V110H31.2941V105.23C31.2941 104.294 31.1681 103.634 30.9161 103.25C30.6641 102.854 30.2501 102.656 29.6741 102.656C29.2181 102.656 28.8221 102.734 28.4861 102.89C28.1621 103.046 27.8921 103.268 27.6761 103.556C27.4721 103.844 27.3161 104.186 27.2081 104.582C27.1121 104.978 27.0641 105.416 27.0641 105.896V110H25.6601V103.574ZM53.522 108.47C53.018 109.118 52.466 109.574 51.866 109.838C51.266 110.09 50.57 110.216 49.778 110.216C49.118 110.216 48.524 110.102 47.996 109.874C47.468 109.634 47.018 109.316 46.646 108.92C46.286 108.524 46.004 108.056 45.8 107.516C45.608 106.976 45.512 106.4 45.512 105.788C45.512 105.14 45.62 104.546 45.836 104.006C46.052 103.454 46.352 102.986 46.736 102.602C47.12 102.206 47.576 101.9 48.104 101.684C48.632 101.468 49.208 101.36 49.832 101.36C50.42 101.36 50.96 101.462 51.452 101.666C51.944 101.858 52.364 102.146 52.712 102.53C53.072 102.902 53.348 103.364 53.54 103.916C53.732 104.456 53.828 105.074 53.828 105.77V106.22H47.024C47.048 106.58 47.132 106.928 47.276 107.264C47.432 107.588 47.63 107.876 47.87 108.128C48.11 108.368 48.392 108.56 48.716 108.704C49.04 108.848 49.394 108.92 49.778 108.92C50.39 108.92 50.906 108.812 51.326 108.596C51.746 108.38 52.124 108.062 52.46 107.642L53.522 108.47ZM52.316 105.032C52.292 104.312 52.058 103.736 51.614 103.304C51.17 102.872 50.558 102.656 49.778 102.656C48.998 102.656 48.368 102.872 47.888 103.304C47.408 103.736 47.12 104.312 47.024 105.032H52.316ZM56 103.574C56 103.19 55.988 102.83 55.964 102.494C55.94 102.158 55.928 101.852 55.928 101.576H57.26C57.26 101.804 57.266 102.032 57.278 102.26C57.29 102.488 57.296 102.722 57.296 102.962H57.332C57.428 102.758 57.56 102.56 57.728 102.368C57.908 102.176 58.118 102.008 58.358 101.864C58.598 101.708 58.868 101.588 59.168 101.504C59.468 101.408 59.792 101.36 60.14 101.36C60.236 101.36 60.332 101.366 60.428 101.378C60.524 101.39 60.62 101.414 60.716 101.45L60.626 102.872C60.386 102.8 60.134 102.764 59.87 102.764C59.006 102.764 58.376 103.046 57.98 103.61C57.596 104.162 57.404 104.924 57.404 105.896V110H56V103.574ZM62.2201 102.656C62.6521 102.212 63.1621 101.888 63.7501 101.684C64.3501 101.468 64.9561 101.36 65.5681 101.36C66.8161 101.36 67.7161 101.654 68.2681 102.242C68.8201 102.83 69.0961 103.724 69.0961 104.924V108.542C69.0961 108.782 69.1081 109.034 69.1321 109.298C69.1561 109.55 69.1861 109.784 69.2221 110H67.8721C67.8241 109.808 67.7941 109.598 67.7821 109.37C67.7821 109.13 67.7821 108.92 67.7821 108.74H67.7461C67.4701 109.172 67.0981 109.526 66.6301 109.802C66.1741 110.078 65.6221 110.216 64.9741 110.216C64.5421 110.216 64.1341 110.162 63.7501 110.054C63.3781 109.946 63.0481 109.79 62.7601 109.586C62.4841 109.37 62.2621 109.106 62.0941 108.794C61.9261 108.482 61.8421 108.122 61.8421 107.714C61.8421 107.018 62.0221 106.472 62.3821 106.076C62.7421 105.68 63.1861 105.386 63.7141 105.194C64.2541 105.002 64.8301 104.882 65.4421 104.834C66.0661 104.786 66.6361 104.762 67.1521 104.762H67.6921V104.51C67.6921 103.898 67.5061 103.436 67.1341 103.124C66.7741 102.812 66.2641 102.656 65.6041 102.656C65.1481 102.656 64.6981 102.734 64.2541 102.89C63.8221 103.034 63.4381 103.262 63.1021 103.574L62.2201 102.656ZM66.2881 105.95C65.3881 105.95 64.6741 106.076 64.1461 106.328C63.6181 106.58 63.3541 106.994 63.3541 107.57C63.3541 108.098 63.5281 108.476 63.8761 108.704C64.2361 108.92 64.6801 109.028 65.2081 109.028C65.6161 109.028 65.9701 108.962 66.2701 108.83C66.5821 108.686 66.8401 108.5 67.0441 108.272C67.2481 108.044 67.4041 107.78 67.5121 107.48C67.6201 107.168 67.6801 106.838 67.6921 106.49V105.95H66.2881ZM76.2701 102.764H73.7861V106.976C73.7861 107.252 73.7921 107.51 73.8041 107.75C73.8161 107.978 73.8641 108.182 73.9481 108.362C74.0321 108.53 74.1581 108.668 74.3261 108.776C74.4941 108.872 74.7341 108.92 75.0461 108.92C75.2501 108.92 75.4601 108.896 75.6761 108.848C75.8921 108.8 76.0961 108.728 76.2881 108.632L76.3421 109.91C76.1021 110.018 75.8321 110.096 75.5321 110.144C75.2441 110.192 74.9681 110.216 74.7041 110.216C74.2001 110.216 73.7981 110.15 73.4981 110.018C73.1981 109.886 72.9641 109.7 72.7961 109.46C72.6281 109.22 72.5141 108.926 72.4541 108.578C72.4061 108.218 72.3821 107.822 72.3821 107.39V102.764H70.5461V101.576H72.3821V99.182H73.7861V101.576H76.2701V102.764ZM87.608 102.764H85.124V106.976C85.124 107.252 85.13 107.51 85.142 107.75C85.154 107.978 85.202 108.182 85.286 108.362C85.37 108.53 85.496 108.668 85.664 108.776C85.832 108.872 86.072 108.92 86.384 108.92C86.588 108.92 86.798 108.896 87.014 108.848C87.23 108.8 87.434 108.728 87.626 108.632L87.68 109.91C87.44 110.018 87.17 110.096 86.87 110.144C86.582 110.192 86.306 110.216 86.042 110.216C85.538 110.216 85.136 110.15 84.836 110.018C84.536 109.886 84.302 109.7 84.134 109.46C83.966 109.22 83.852 108.926 83.792 108.578C83.744 108.218 83.72 107.822 83.72 107.39V102.764H81.884V101.576H83.72V99.182H85.124V101.576H87.608V102.764ZM88.8421 105.788C88.8421 105.128 88.9561 104.528 89.1841 103.988C89.4121 103.448 89.7241 102.986 90.1201 102.602C90.5161 102.206 90.9901 101.9 91.5421 101.684C92.0941 101.468 92.6941 101.36 93.3421 101.36C93.9901 101.36 94.5901 101.468 95.1421 101.684C95.6941 101.9 96.1681 102.206 96.5641 102.602C96.9601 102.986 97.2721 103.448 97.5001 103.988C97.7281 104.528 97.8421 105.128 97.8421 105.788C97.8421 106.448 97.7281 107.048 97.5001 107.588C97.2721 108.128 96.9601 108.596 96.5641 108.992C96.1681 109.376 95.6941 109.676 95.1421 109.892C94.5901 110.108 93.9901 110.216 93.3421 110.216C92.6941 110.216 92.0941 110.108 91.5421 109.892C90.9901 109.676 90.5161 109.376 90.1201 108.992C89.7241 108.596 89.4121 108.128 89.1841 107.588C88.9561 107.048 88.8421 106.448 88.8421 105.788ZM90.3541 105.788C90.3541 106.232 90.4201 106.646 90.5521 107.03C90.6961 107.402 90.9001 107.732 91.1641 108.02C91.4281 108.296 91.7401 108.518 92.1001 108.686C92.4721 108.842 92.8861 108.92 93.3421 108.92C93.7981 108.92 94.2061 108.842 94.5661 108.686C94.9381 108.518 95.2561 108.296 95.5201 108.02C95.7841 107.732 95.9821 107.402 96.1141 107.03C96.2581 106.646 96.3301 106.232 96.3301 105.788C96.3301 105.344 96.2581 104.936 96.1141 104.564C95.9821 104.18 95.7841 103.85 95.5201 103.574C95.2561 103.286 94.9381 103.064 94.5661 102.908C94.2061 102.74 93.7981 102.656 93.3421 102.656C92.8861 102.656 92.4721 102.74 92.1001 102.908C91.7401 103.064 91.4281 103.286 91.1641 103.574C90.9001 103.85 90.6961 104.18 90.5521 104.564C90.4201 104.936 90.3541 105.344 90.3541 105.788ZM100.016 103.574C100.016 103.19 100.004 102.83 99.9796 102.494C99.9556 102.158 99.9436 101.852 99.9436 101.576H101.276C101.276 101.804 101.282 102.032 101.294 102.26C101.306 102.488 101.312 102.722 101.312 102.962H101.348C101.444 102.758 101.576 102.56 101.744 102.368C101.924 102.176 102.134 102.008 102.374 101.864C102.614 101.708 102.884 101.588 103.184 101.504C103.484 101.408 103.808 101.36 104.156 101.36C104.252 101.36 104.348 101.366 104.444 101.378C104.54 101.39 104.636 101.414 104.732 101.45L104.642 102.872C104.402 102.8 104.15 102.764 103.886 102.764C103.022 102.764 102.392 103.046 101.996 103.61C101.612 104.162 101.42 104.924 101.42 105.896V110H100.016V103.574ZM110.952 102.764H108.468V106.976C108.468 107.252 108.474 107.51 108.486 107.75C108.498 107.978 108.546 108.182 108.63 108.362C108.714 108.53 108.84 108.668 109.008 108.776C109.176 108.872 109.416 108.92 109.728 108.92C109.932 108.92 110.142 108.896 110.358 108.848C110.574 108.8 110.778 108.728 110.97 108.632L111.024 109.91C110.784 110.018 110.514 110.096 110.214 110.144C109.926 110.192 109.65 110.216 109.386 110.216C108.882 110.216 108.48 110.15 108.18 110.018C107.88 109.886 107.646 109.7 107.478 109.46C107.31 109.22 107.196 108.926 107.136 108.578C107.088 108.218 107.064 107.822 107.064 107.39V102.764H105.228V101.576H107.064V99.182H108.468V101.576H110.952V102.764ZM112.186 105.788C112.186 105.128 112.3 104.528 112.528 103.988C112.756 103.448 113.068 102.986 113.464 102.602C113.86 102.206 114.334 101.9 114.886 101.684C115.438 101.468 116.038 101.36 116.686 101.36C117.334 101.36 117.934 101.468 118.486 101.684C119.038 101.9 119.512 102.206 119.908 102.602C120.304 102.986 120.616 103.448 120.844 103.988C121.072 104.528 121.186 105.128 121.186 105.788C121.186 106.448 121.072 107.048 120.844 107.588C120.616 108.128 120.304 108.596 119.908 108.992C119.512 109.376 119.038 109.676 118.486 109.892C117.934 110.108 117.334 110.216 116.686 110.216C116.038 110.216 115.438 110.108 114.886 109.892C114.334 109.676 113.86 109.376 113.464 108.992C113.068 108.596 112.756 108.128 112.528 107.588C112.3 107.048 112.186 106.448 112.186 105.788ZM113.698 105.788C113.698 106.232 113.764 106.646 113.896 107.03C114.04 107.402 114.244 107.732 114.508 108.02C114.772 108.296 115.084 108.518 115.444 108.686C115.816 108.842 116.23 108.92 116.686 108.92C117.142 108.92 117.55 108.842 117.91 108.686C118.282 108.518 118.6 108.296 118.864 108.02C119.128 107.732 119.326 107.402 119.458 107.03C119.602 106.646 119.674 106.232 119.674 105.788C119.674 105.344 119.602 104.936 119.458 104.564C119.326 104.18 119.128 103.85 118.864 103.574C118.6 103.286 118.282 103.064 117.91 102.908C117.55 102.74 117.142 102.656 116.686 102.656C116.23 102.656 115.816 102.74 115.444 102.908C115.084 103.064 114.772 103.286 114.508 103.574C114.244 103.85 114.04 104.18 113.896 104.564C113.764 104.936 113.698 105.344 113.698 105.788ZM123.359 103.574C123.359 103.19 123.347 102.83 123.323 102.494C123.299 102.158 123.287 101.852 123.287 101.576H124.619C124.619 101.804 124.625 102.032 124.637 102.26C124.649 102.488 124.655 102.722 124.655 102.962H124.691C124.787 102.758 124.919 102.56 125.087 102.368C125.267 102.176 125.477 102.008 125.717 101.864C125.957 101.708 126.227 101.588 126.527 101.504C126.827 101.408 127.151 101.36 127.499 101.36C127.595 101.36 127.691 101.366 127.787 101.378C127.883 101.39 127.979 101.414 128.075 101.45L127.985 102.872C127.745 102.8 127.493 102.764 127.229 102.764C126.365 102.764 125.735 103.046 125.339 103.61C124.955 104.162 124.763 104.924 124.763 105.896V110H123.359V103.574Z" fill="#4B5D68"/>
</svg>
